<svg width="19" height="19" viewBox="0 0 19 19" fill="none" xmlns="http://www.w3.org/2000/svg">
<g clip-path="url(#clip0_10_5674)">
<path d="M18.4918 9.6723C18.4918 8.91756 18.4306 8.3668 18.298 7.79565H9.67969V11.2022H14.7385C14.6365 12.0487 14.0858 13.3236 12.8618 14.1803L12.8447 14.2944L15.5696 16.4053L15.7584 16.4242C17.4923 14.8229 18.4918 12.4669 18.4918 9.6723Z" fill="#4285F4"/>
<path d="M9.67969 18.6476C12.1581 18.6476 14.2387 17.8317 15.7584 16.4242L12.8618 14.1803C12.0867 14.7209 11.0464 15.0983 9.67969 15.0983C7.25229 15.0983 5.19206 13.497 4.45765 11.2838L4.35 11.293L1.51655 13.4858L1.47949 13.5888C2.98896 16.5873 6.08953 18.6476 9.67969 18.6476Z" fill="#34A853"/>
<path d="M4.45726 11.2839C4.26348 10.7127 4.15133 10.1007 4.15133 9.4684C4.15133 8.836 4.26348 8.22407 4.44706 7.65293L4.44193 7.53129L1.57297 5.30322L1.4791 5.34787C0.856977 6.59219 0.5 7.98951 0.5 9.4684C0.5 10.9473 0.856977 12.3445 1.4791 13.5888L4.45726 11.2839Z" fill="#FBBC05"/>
<path d="M9.67969 3.83837C11.4033 3.83837 12.566 4.58291 13.229 5.2051L15.8196 2.67568C14.2286 1.1968 12.1581 0.289062 9.67969 0.289062C6.08953 0.289062 2.98896 2.34929 1.47949 5.34784L4.44745 7.65289C5.19206 5.43966 7.25229 3.83837 9.67969 3.83837Z" fill="#EB4335"/>
</g>
<defs>
<clipPath id="clip0_10_5674">
<rect width="18" height="18.4219" fill="white" transform="translate(0.5 0.289062)"/>
</clipPath>
</defs>
</svg>
