<svg width="89" height="87" viewBox="0 0 89 87" fill="none" xmlns="http://www.w3.org/2000/svg">
<g clip-path="url(#clip0_182_5)">
<path d="M12.7678 71.4642V58.6473L16.6368 52.0446L25.5356 37.2856V47.2868C25.5356 53.6525 25.6749 57.3228 26.3094 57.4821H26.6963H51.845L51.168 58.6822C50.7965 59.3386 49.4037 61.0009 45.6546 64.8615C38.5278 72.2565 39.2513 72.1167 23.8913 71.74L12.7678 71.4642Z" fill="#1EA844"/>
<path d="M26.3094 57.4822L25.9225 36.5089L26.6963 35.7322L31.8228 32.9474C39.6421 28.7061 38.6246 28.7139 45.821 32.8231C49.1715 34.734 52.0694 36.6216 52.2668 37.0216C52.4602 37.4178 52.6188 42.0979 52.6188 57.0938L51.845 57.4822H26.6963H26.3094ZM36.0246 46.2188C33.8811 46.2188 33.6915 46.4479 33.9043 48.8404C34.0475 50.4911 34.0475 50.4911 35.982 50.4911C37.9165 50.4911 37.9165 50.4911 37.9165 48.3549C37.9165 46.2188 37.9165 46.2188 36.0246 46.2188ZM42.2692 46.2964C40.2379 46.1799 40.2379 46.1799 40.2379 48.3355C40.2379 50.4911 40.2379 50.4911 42.2692 50.394C44.3004 50.2969 44.3004 50.2969 44.3004 48.3549C44.3004 46.413 44.3004 46.413 42.2692 46.2964ZM34.0475 40.0045V44.2768H37.9165V40.0045H34.0475ZM42.1647 40.0045C40.2379 40.0045 40.2379 40.0045 40.2379 42.1406C40.2379 44.2768 40.2379 44.2768 42.1841 44.2768C44.0257 44.2768 44.1379 44.2185 44.3546 43.1272C44.8305 40.7424 44.312 40.0045 42.1647 40.0045Z" fill="#FCF7EF"/>
<path d="M45.6546 64.8615C49.4037 61.0009 50.7965 59.3386 51.168 58.6822L51.845 57.482L52.6189 57.0936L57.7453 52.3358C65.9206 44.7505 65.9941 44.6185 65.3867 34.1785H65.7736C75.7441 40.9986 75.0592 39.0101 75.0592 52.8097C75.0592 61.5446 74.9354 64.8304 74.595 65.1722C73.9953 65.7742 46.1808 65.848 45.8635 65.2499L45.6546 64.8615Z" fill="#ADB5E2"/>
<path d="M52.6188 57.0937C52.6188 42.0978 52.4602 37.4177 52.2668 37.0215C52.0694 36.6215 49.1715 34.7339 45.821 32.823C38.6246 28.7138 39.6421 28.7061 31.8228 32.9473L26.6963 35.7321L27.18 34.2756C27.4469 33.4755 28.8398 30.6791 32.8868 23.3035H33.2737L39.7543 23.2802C49.926 23.2453 48.7614 22.8802 65.3867 34.1785C65.9941 44.6185 65.9206 44.7506 57.7453 52.3359L52.6188 57.0937Z" fill="#0068BE"/>
<path d="M33.2737 23.3036C36.5275 17.0272 37.8237 15.0192 38.2493 14.7862C39.5106 14.1104 64.4426 14.2191 65.081 14.9066C65.4524 15.3066 65.6033 17.8117 65.6768 24.8106L65.7736 34.1786H65.3867C48.7614 22.8803 49.926 23.2454 39.7543 23.2803L33.2737 23.3036Z" fill="#0DBAE8"/>
<path d="M16.6368 52.0446C16.6368 20.8528 15.569 22.6433 25.6285 23.0278L32.8868 23.3036C28.8398 30.6792 27.4469 33.4756 27.18 34.2757L26.6963 35.7321L25.9225 36.5089L25.5356 37.2857L16.6368 52.0446Z" fill="#8ECE23"/>
<path d="M42.2692 46.2964C44.3004 46.4129 44.3004 46.4129 44.3004 48.3549C44.3004 50.2969 44.3004 50.2969 42.2692 50.394C40.2379 50.491 40.2379 50.491 40.2379 48.3355C40.2379 46.1799 40.2379 46.1799 42.2692 46.2964Z" fill="#0068BE"/>
<path d="M42.1647 40.0044C44.312 40.0044 44.8305 40.7423 44.3546 43.1271C44.1379 44.2185 44.0257 44.2767 42.1841 44.2767C40.2379 44.2767 40.2379 44.2767 40.2379 42.1406C40.2379 40.0044 40.2379 40.0044 42.1647 40.0044Z" fill="#0068BE"/>
<path d="M36.0246 46.2188C37.9165 46.2188 37.9165 46.2188 37.9165 48.3549C37.9165 50.4911 37.9165 50.4911 35.982 50.4911C34.0475 50.4911 34.0475 50.4911 33.9043 48.8404C33.6915 46.4479 33.8811 46.2188 36.0246 46.2188Z" fill="#0068BE"/>
<path d="M34.0475 40.0044H37.9165V44.2767H34.0475V40.0044Z" fill="#0068BE"/>
<path d="M25.5356 37.2858L25.9225 36.509L26.3094 57.4822C25.6749 57.323 25.5356 53.6527 25.5356 47.2869V37.2858Z" fill="#D6E5CE"/>
</g>
<defs>
<clipPath id="clip0_182_5">
<rect width="88.214" height="87" fill="white"/>
</clipPath>
</defs>
</svg>
